<svg xmlns="http://www.w3.org/2000/svg" width="193.565" height="251.451" viewBox="0 0 193.565 251.451">
  <g id="Group_38" data-name="Group 38" transform="translate(-117.816 -31.452)">
    <rect id="Rectangle_25" data-name="Rectangle 25" width="193.565" height="0.364" transform="translate(117.816 282.539)" fill="#3c354c"/>
    <path id="Path_322" data-name="Path 322" d="M556.082,407.754a6.836,6.836,0,0,0-1.284-4.184l-.579,2.281v-2.74a1.39,1.39,0,0,0-.848-.2c-1.423.131-2.521,2.521-2.456,5.338s1.273,5,2.7,4.865S556.147,410.581,556.082,407.754Z" transform="translate(-378.278 -267.03)" fill="#57b894"/>
    <path id="Path_323" data-name="Path 323" d="M555.766,414c-.6.131-1.175.5-1.772.571a1.543,1.543,0,0,1-1.626-1.132c-.2-.495-.306-1.121-.477-1.663a3.381,3.381,0,0,0-.651-1.208,9.406,9.406,0,0,0-.276,2.547c.065,2.816,1.273,4.992,2.7,4.861,1.193-.109,2.158-1.819,2.4-4.024a2.541,2.541,0,0,0-.291.047Z" transform="translate(-378.308 -271.906)" opacity="0.1"/>
    <path id="Path_324" data-name="Path 324" d="M880.06,360.787a6.865,6.865,0,0,0-3.813-2.147l1.139,2.038-1.874-2a1.408,1.408,0,0,0-.753.437c-.942,1.092-.091,3.566,1.9,5.563s4.366,2.743,5.3,1.666S882.039,362.773,880.06,360.787Z" transform="translate(-584.05 -238.87)" fill="#57b894"/>
    <path id="Path_325" data-name="Path 325" d="M881.987,367.5c-.342.5-.509,1.168-.891,1.63a1.55,1.55,0,0,1-1.957.306c-.491-.218-1-.6-1.492-.877a3.376,3.376,0,0,0-1.306-.433,9.476,9.476,0,0,0,1.557,2.041c1.99,2,4.366,2.743,5.3,1.666.786-.9.313-2.8-1.033-4.566a1.9,1.9,0,0,0-.182.233Z" transform="translate(-585.301 -244.36)" opacity="0.1"/>
    <path id="Path_326" data-name="Path 326" d="M598.8,356.526l-6.265-3.638s-15.143-2.088-13.055-9.4,12.534,0,12.534,0l6.786,4.668Z" transform="translate(-396.329 -227.166)" fill="#ffc1c7"/>
    <path id="Path_327" data-name="Path 327" d="M598.8,356.526l-6.265-3.638s-15.143-2.088-13.055-9.4,12.534,0,12.534,0l6.786,4.668Z" transform="translate(-396.329 -227.166)" opacity="0.1"/>
    <path id="Path_328" data-name="Path 328" d="M656.838,253.9s-15.14,10.966-15.14,7.31c0-2.183-2.641-8.925-4.752-13.943-1.4-3.326-2.547-5.9-2.547-5.9l15.645-4.177a18.267,18.267,0,0,0,.175,7.641A14.728,14.728,0,0,0,656.838,253.9Z" transform="translate(-431.389 -161.609)" fill="#ffc1c7"/>
    <path id="Path_329" data-name="Path 329" d="M564.869,538.94s-12.007,26.63-7.834,36.548c0,0-13.051,39.684-17.228,41.249s10.442,4.177,10.442,4.177,17.221-22.973,18.258-41.249S588.356,542.6,588.356,542.6Z" transform="translate(-370.736 -353.569)" fill="#ffc1c7"/>
    <path id="Path_330" data-name="Path 330" d="M686,556.8s6.786,21.932,15.664,28.2c0,0,18.276,30.283,15.645,39.681,0,0,10.442,1.568,10.966,0,0,0-4.7-32.9-16.187-45.946S705.851,550,705.851,550Z" transform="translate(-464.215 -360.605)" fill="#ffc1c7"/>
    <path id="Path_331" data-name="Path 331" d="M500.147,749.542s-6.265-5.221-10.963-1.044-13.055,3.133-19.32,1.044-5.741,3.133,8.878,9.918,22.973,8.369,22.973,8.369,2.088-8.369,2.088-10.442a26.865,26.865,0,0,1,1.3-5.992Z" transform="translate(-324.301 -485.85)" fill="#f2f2f2"/>
    <path id="Path_332" data-name="Path 332" d="M743.41,750.633s-6.265-3.638-7.31,3.133-16.187,10.966-16.187,10.966-7.31,6.786,15.143,4.686,20.885-6.265,20.885-6.265l-7.109-13.513Z" transform="translate(-485.065 -487.607)" fill="#f2f2f2"/>
    <path id="Path_333" data-name="Path 333" d="M613.062,466.147s-16.187,22.973-9.922,25.582,5.745-4.177,12.007,3.133,22.453,3.638,24.541,2.088,7.31-8.368,11.487-7.83-6.8-26.63-6.8-26.63Z" transform="translate(-410.586 -304.935)" fill="#3f3d56"/>
    <path id="Path_334" data-name="Path 334" d="M648.808,242.579c-2.234,2.085-3.813,5.621-7.109,5.621a12.447,12.447,0,0,1-4.752-.935c-1.4-3.326-2.547-5.9-2.547-5.9l15.645-4.177C649.536,240.181,648.273,240.454,648.808,242.579Z" transform="translate(-431.389 -161.609)" opacity="0.1"/>
    <circle id="Ellipse_47" data-name="Ellipse 47" cx="12.531" cy="12.531" r="12.531" transform="translate(197.779 60.438)" fill="#ffc1c7"/>
    <path id="Path_335" data-name="Path 335" d="M642.291,278.81s-5.414,5.494-7.928,5.88-11.92,16.569-9.3,29.624-3.133,40.2-.52,41.769,44.389-5.741,44.389-5.741Z" transform="translate(-424.672 -188.086)" fill="#f2f2f2"/>
    <path id="Path_336" data-name="Path 336" d="M653.394,271.223S644,268.09,640.864,284.8s-7.31,2.612-7.31,24.014-1.568,29.242,1.044,47.514,4.7,18.276,1.564,24.541,33.416,4.7,42.293-7.31-2.612-56.913-7.31-63.7-4.7-27.67-8.368-32.892A14.012,14.012,0,0,0,653.394,271.223Z" transform="translate(-430.554 -183.111)" fill="#c1246b"/>
    <path id="Path_337" data-name="Path 337" d="M654.236,376.692l-4.624-5.785L634.85,300.459l9.922-18.52a10.988,10.988,0,0,1,8.434-5.731,10.777,10.777,0,0,1,9.46,3.638c14.361,16.351,21.569,67.053,21.867,69.2l.029.2-1.455,3.788-7.641,17.126Zm-3.169-6.469,3.726,4.657,19.517-6.018,7.335-16.439,1.306-3.373c-.517-3.558-7.855-52.7-21.467-68.188a9.4,9.4,0,0,0-15.336,1.8L636.5,300.681Z" transform="translate(-431.676 -186.38)" fill="#2f2e41"/>
    <path id="Path_338" data-name="Path 338" d="M577.163,335.181h0L563.6,323.112a.819.819,0,0,1-.135-1.062l.167-.255h0a.728.728,0,0,1,1.117-.131l12.371,11.461a1.419,1.419,0,0,1,.047,2.056Z" transform="translate(-386.174 -215.218)" fill="#6c63ff"/>
    <path id="Path_339" data-name="Path 339" d="M577.163,335.766h0L563.6,323.7a.819.819,0,0,1-.135-1.062l.167-.255,13.5,12.109a.877.877,0,0,1,.033,1.277Z" transform="translate(-386.174 -215.803)" fill="#192534"/>
    <path id="Path_340" data-name="Path 340" d="M652.645,344.984s-19.32-1.565-22.973-8.368-13.055-3.133-10.442,0,2.088,10.442,9.4,10.966,25.582,4.191,25.582,4.191Z" transform="translate(-421.451 -222.413)" fill="#ffc1c7"/>
    <path id="Path_341" data-name="Path 341" d="M710.8,476.84s-13.055,1.044-16.187,14.619-17.228,6.789-17.228,6.789-1.568,35.5,21.405,26.63,28.2-25.586,28.2-27.674S711.32,482.585,710.8,476.84Z" transform="translate(-458.717 -314.064)" fill="#2f2e41"/>
    <path id="Path_342" data-name="Path 342" d="M678.425,500.857s14.084,6.789,17.228-6.786c2.984-12.931,14.958-14.492,16.093-14.612a6.989,6.989,0,0,1-.95-2.62s-13.055,1.044-16.187,14.619-17.228,6.789-17.228,6.789-.509,11.588,3.336,19.87C678.014,510.212,678.425,500.857,678.425,500.857Z" transform="translate(-458.718 -314.064)" opacity="0.1"/>
    <path id="Path_343" data-name="Path 343" d="M787.23,503.02a4.372,4.372,0,0,0,.113-.786c0-1.786-11.465-11.221-15.1-17.5C773.011,489.584,783.665,498.844,787.23,503.02Z" transform="translate(-519.077 -319.083)" opacity="0.1"/>
    <path id="Path_344" data-name="Path 344" d="M608.157,165.893c-.728,2.285,1.626,4.6,4,4.835s4.679-.9,6.855-1.917,4.606-1.972,6.931-1.354c2.547.673,4.242,3.042,5.374,5.407a26.975,26.975,0,0,1,2.143,6.506c.466,2.409.68,5.057,2.336,6.877s4.4,2.31,6.913,2.3,5.05-.364,7.47.255c4.8,1.252,7.775,6.036,9.489,10.682s2.743,9.707,5.847,13.575c2.587,3.231,6.36,5.279,10.14,6.979a19.213,19.213,0,0,0,5.963,1.848,7.462,7.462,0,0,0,5.821-1.714c1.7-1.594,2.245-4.024,2.707-6.3.673-3.3,1.346-6.7.79-10.028-.728-4.366-3.533-8.2-4.177-12.589-.626-4.264.848-8.569.7-12.876a17.7,17.7,0,0,0-12.52-15.947c-2.547-.728-5.221-.859-7.666-1.819-3.187-1.27-5.643-3.824-8.248-6.054a50.17,50.17,0,0,0-21.652-10.817c-5.363-1.19-11.708-1.208-15.5,2.754-1.539,1.612-2.547,3.791-4.512,4.868a20.07,20.07,0,0,1-3.249,1.132,10.905,10.905,0,0,0-6.356,13.768" transform="translate(-414.025 -101.715)" fill="#2f2e41"/>
    <path id="Path_345" data-name="Path 345" d="M684.861,236.887a19.215,19.215,0,0,1-5.963-1.848c-3.78-1.7-7.55-3.748-10.14-6.979-3.1-3.868-4.137-8.925-5.847-13.575s-4.686-9.431-9.489-10.682c-2.42-.633-4.97-.266-7.47-.255s-5.221-.451-6.913-2.3-1.87-4.468-2.336-6.877a26.922,26.922,0,0,0-2.143-6.506c-1.132-2.365-2.834-4.73-5.374-5.407-2.325-.619-4.755.335-6.931,1.354s-4.461,2.158-6.855,1.917-4.73-2.547-4-4.835l-.364.364a10.078,10.078,0,0,1-.247-6.429,10.941,10.941,0,0,0-2.889,11.643l.364-.364c-.728,2.285,1.626,4.6,4,4.836s4.679-.9,6.855-1.917,4.606-1.972,6.931-1.354c2.547.673,4.242,3.042,5.374,5.407a26.964,26.964,0,0,1,2.143,6.506c.466,2.409.68,5.057,2.336,6.877s4.4,2.31,6.913,2.3,5.05-.364,7.47.255c4.8,1.252,7.775,6.036,9.489,10.682s2.743,9.707,5.847,13.575c2.587,3.231,6.36,5.279,10.14,6.979a19.214,19.214,0,0,0,5.963,1.848,7.462,7.462,0,0,0,5.821-1.714,9.1,9.1,0,0,0,2.336-4.614A7.961,7.961,0,0,1,684.861,236.887Z" transform="translate(-414.113 -121.938)" opacity="0.1"/>
    <path id="Path_346" data-name="Path 346" d="M674.208,284.435s-1.568,11.487,4.177,14.1,9.918,11.472,9.918,11.472l-4.7,1.044s-1.568,7.31,2.609,9.4,15.664,0,15.664,0,5.225-2.612,1.044-10.966-16.18-26.612-16.18-26.612S680.474,276.081,674.208,284.435Z" transform="translate(-456.589 -189.013)" fill="#c1246b"/>
    <ellipse id="Ellipse_48" data-name="Ellipse 48" cx="2.514" cy="3.769" rx="2.514" ry="3.769" transform="translate(216.633 69.377)" fill="#ffc1c7"/>
    <circle id="Ellipse_49" data-name="Ellipse 49" cx="1.255" cy="1.255" r="1.255" transform="translate(217.892 72.31)" fill="#f2f2f2"/>
    <ellipse id="Ellipse_50" data-name="Ellipse 50" cx="1.466" cy="0.629" rx="1.466" ry="0.629" transform="translate(216.878 76.477) rotate(-63.3)" fill="#f2f2f2"/>
    <path id="Path_347" data-name="Path 347" d="M812.082,120.754a6.877,6.877,0,0,0-1.284-4.184l-.578,2.281v-2.74a1.39,1.39,0,0,0-.848-.2c-1.423.131-2.521,2.521-2.456,5.338s1.273,5,2.7,4.865S812.147,123.581,812.082,120.754Z" transform="translate(-541.134 -84.453)" fill="#57b894"/>
    <path id="Path_348" data-name="Path 348" d="M811.766,127c-.6.131-1.175.5-1.772.571a1.543,1.543,0,0,1-1.626-1.132c-.2-.495-.306-1.121-.477-1.663a3.381,3.381,0,0,0-.651-1.208,9.407,9.407,0,0,0-.277,2.547c.065,2.816,1.273,4.992,2.7,4.861,1.193-.109,2.158-1.819,2.4-4.024A2.548,2.548,0,0,0,811.766,127Z" transform="translate(-541.164 -89.329)" opacity="0.1"/>
    <path id="Path_349" data-name="Path 349" d="M883.1,527.787a6.83,6.83,0,0,0,3.369-2.794l-2.31.335,2.547-1.033a1.409,1.409,0,0,0-.138-.859c-.666-1.263-3.3-1.361-5.872-.218s-4.126,3.089-3.46,4.366S880.516,528.93,883.1,527.787Z" transform="translate(-585.769 -343.06)" fill="#57b894"/>
    <path id="Path_350" data-name="Path 350" d="M881.686,528.095a16.668,16.668,0,0,1-1.2-1.415,1.543,1.543,0,0,1,.418-1.936c.364-.364.917-.728,1.35-1.092a3.325,3.325,0,0,0,.87-1.062,9.5,9.5,0,0,0-2.46.728c-2.576,1.143-4.126,3.089-3.46,4.366.56,1.059,2.5,1.3,4.635.673A2.574,2.574,0,0,0,881.686,528.095Z" transform="translate(-585.75 -343.168)" opacity="0.1"/>
    <path id="Path_351" data-name="Path 351" d="M498.1,573.787a6.831,6.831,0,0,0,3.369-2.794l-2.31.335,2.547-1.033a1.408,1.408,0,0,0-.138-.859c-.666-1.263-3.3-1.361-5.872-.218s-4.126,3.089-3.46,4.366S495.516,574.929,498.1,573.787Z" transform="translate(-340.849 -372.323)" fill="#57b894"/>
    <path id="Path_352" data-name="Path 352" d="M496.686,574.095a16.658,16.658,0,0,1-1.2-1.415,1.543,1.543,0,0,1,.418-1.936c.364-.364.917-.728,1.35-1.091a3.325,3.325,0,0,0,.87-1.062,9.5,9.5,0,0,0-2.46.728c-2.576,1.142-4.126,3.089-3.46,4.366.56,1.059,2.5,1.3,4.635.673a2.6,2.6,0,0,0-.149-.262Z" transform="translate(-340.83 -372.431)" opacity="0.1"/>
  </g>
</svg>
