<svg xmlns="http://www.w3.org/2000/svg" width="223.366" height="136.164" viewBox="0 0 223.366 136.164">
  <g id="Group_54" data-name="Group 54" transform="translate(0 0)">
    <path id="Path_570" data-name="Path 570" d="M167.33,518.039l-.383-.086a87.249,87.249,0,0,1,170.148-.232l-.383.087a86.353,86.353,0,0,0-84.664-67.468C211.78,450.339,176.151,478.811,167.33,518.039Z" transform="translate(-140.338 -381.876)" fill="#3f3d56"/>
    <path id="Path_571" data-name="Path 571" d="M214.22,774.144a3.955,3.955,0,0,0,1.473,1.992,3.4,3.4,0,0,0-1.205-4.455A3.954,3.954,0,0,0,214.22,774.144Z" transform="translate(-178.243 -640.405)" fill="#3f3d56"/>
    <path id="Path_572" data-name="Path 572" d="M207.785,778.929a3.954,3.954,0,0,1,1.025,2.255,3.4,3.4,0,0,1-3.307-3.219A3.954,3.954,0,0,1,207.785,778.929Z" transform="translate(-171.32 -645.455)" fill="#6c63ff"/>
    <path id="Path_573" data-name="Path 573" d="M343.22,774.144a3.954,3.954,0,0,0,1.473,1.992,3.4,3.4,0,0,0-1.205-4.455A3.954,3.954,0,0,0,343.22,774.144Z" transform="translate(-281.901 -640.405)" fill="#3f3d56"/>
    <path id="Path_574" data-name="Path 574" d="M336.785,778.929a3.954,3.954,0,0,1,1.025,2.255,3.4,3.4,0,0,1-3.307-3.219A3.954,3.954,0,0,1,336.785,778.929Z" transform="translate(-274.978 -645.455)" fill="#6c63ff"/>
    <path id="Path_575" data-name="Path 575" d="M321.3,86.8l-4.012-3.21,22.469-20.062H396.73V81.183L359.817,106.06Z" transform="translate(-254.954 -51.049)" fill="#3f3d56"/>
    <path id="Path_576" data-name="Path 576" d="M581.229,74.782V63.93h-7.565v2.658l-2.823-3.059L552.384,83.591l-7.222,4.815-11.2,81.815,16.888,16.888H590.1V84.393Z" transform="translate(-429.066 -51.049)" fill="#ccc"/>
    <rect id="Rectangle_84" data-name="Rectangle 84" width="60.987" height="103.518" transform="translate(62.332 32.542)" fill="#f2f2f2"/>
    <rect id="Rectangle_85" data-name="Rectangle 85" width="11.234" height="25.278" transform="translate(86.004 110.782)" fill="#ccc"/>
    <path id="Path_577" data-name="Path 577" d="M356.822,584.265v-4.012h-4.815v4.012h4.815Z" transform="translate(-282.854 -466.261)" fill="#3f3d56"/>
    <path id="Path_578" data-name="Path 578" d="M356.421,617.016h-4.414v4.012h4.815v-4.012Z" transform="translate(-282.854 -495.802)" fill="#3f3d56"/>
    <rect id="Rectangle_86" data-name="Rectangle 86" width="4.815" height="4.012" transform="translate(77.177 113.992)" fill="#3f3d56"/>
    <rect id="Rectangle_87" data-name="Rectangle 87" width="4.815" height="4.012" transform="translate(77.177 121.214)" fill="#3f3d56"/>
    <path id="Path_579" data-name="Path 579" d="M524.3,584.265v-4.012h-4.815v4.012H524.3Z" transform="translate(-417.429 -466.261)" fill="#3f3d56"/>
    <path id="Path_580" data-name="Path 580" d="M523.9,617.016h-4.414v4.012H524.3v-4.012Z" transform="translate(-417.429 -495.802)" fill="#3f3d56"/>
    <rect id="Rectangle_88" data-name="Rectangle 88" width="4.815" height="4.012" transform="translate(110.078 113.992)" fill="#3f3d56"/>
    <rect id="Rectangle_89" data-name="Rectangle 89" width="4.815" height="4.012" transform="translate(110.078 121.214)" fill="#3f3d56"/>
    <path id="Path_581" data-name="Path 581" d="M695.858,175.788v-4.012h-4.815v4.012h4.815Z" transform="translate(-555.286 -138.031)" fill="#3f3d56"/>
    <path id="Path_582" data-name="Path 582" d="M695.457,208.539h-4.414v4.012h4.815v-4.012Z" transform="translate(-555.286 -167.571)" fill="#3f3d56"/>
    <rect id="Rectangle_90" data-name="Rectangle 90" width="4.815" height="4.012" transform="translate(143.782 33.745)" fill="#3f3d56"/>
    <rect id="Rectangle_91" data-name="Rectangle 91" width="4.815" height="4.012" transform="translate(143.782 40.968)" fill="#3f3d56"/>
    <path id="Path_583" data-name="Path 583" d="M695.858,290.161v-4.012h-4.815v4.012h4.815Z" transform="translate(-555.286 -229.935)" fill="#3f3d56"/>
    <path id="Path_584" data-name="Path 584" d="M695.457,322.912h-4.414v4.012h4.815v-4.012Z" transform="translate(-555.286 -259.476)" fill="#3f3d56"/>
    <rect id="Rectangle_92" data-name="Rectangle 92" width="4.815" height="4.012" transform="translate(143.782 56.214)" fill="#3f3d56"/>
    <rect id="Rectangle_93" data-name="Rectangle 93" width="4.815" height="4.012" transform="translate(143.782 63.436)" fill="#3f3d56"/>
    <path id="Path_585" data-name="Path 585" d="M695.858,404.535v-4.012h-4.815v4.012h4.815Z" transform="translate(-555.286 -321.84)" fill="#3f3d56"/>
    <path id="Path_586" data-name="Path 586" d="M695.457,437.286h-4.414V441.3h4.815v-4.012Z" transform="translate(-555.286 -351.38)" fill="#3f3d56"/>
    <rect id="Rectangle_94" data-name="Rectangle 94" width="4.815" height="4.012" transform="translate(143.782 78.683)" fill="#3f3d56"/>
    <rect id="Rectangle_95" data-name="Rectangle 95" width="4.815" height="4.012" transform="translate(143.782 85.905)" fill="#3f3d56"/>
    <path id="Path_587" data-name="Path 587" d="M695.858,518.909V514.9h-4.815v4.012h4.815Z" transform="translate(-555.286 -413.745)" fill="#3f3d56"/>
    <path id="Path_588" data-name="Path 588" d="M695.457,551.66h-4.414v4.012h4.815V551.66Z" transform="translate(-555.286 -443.285)" fill="#3f3d56"/>
    <rect id="Rectangle_96" data-name="Rectangle 96" width="4.815" height="4.012" transform="translate(143.782 101.152)" fill="#3f3d56"/>
    <rect id="Rectangle_97" data-name="Rectangle 97" width="4.815" height="4.012" transform="translate(143.782 108.375)" fill="#3f3d56"/>
    <rect id="Rectangle_98" data-name="Rectangle 98" width="46.543" height="9.63" transform="translate(69.153 37.758)" fill="#3f3d56"/>
    <rect id="Rectangle_99" data-name="Rectangle 99" width="46.543" height="9.63" transform="translate(69.153 57.017)" fill="#3f3d56"/>
    <rect id="Rectangle_100" data-name="Rectangle 100" width="46.543" height="9.63" transform="translate(69.153 76.276)" fill="#3f3d56"/>
    <rect id="Rectangle_101" data-name="Rectangle 101" width="46.543" height="9.63" transform="translate(69.153 95.535)" fill="#3f3d56"/>
    <rect id="Rectangle_102" data-name="Rectangle 102" width="223.366" height="0.393" transform="translate(0 135.656)" fill="#3f3d56"/>
    <rect id="Rectangle_103" data-name="Rectangle 103" width="1.154" height="45.587" transform="translate(37.405 90.292)" fill="#3f3d56"/>
    <path id="Path_589" data-name="Path 589" d="M189.762,474.784c.073,15.941-11.142,28.915-11.142,28.915s-11.334-12.871-11.408-28.811,11.142-28.915,11.142-28.915S189.688,458.844,189.762,474.784Z" transform="translate(-140.551 -378.683)" fill="#6c63ff"/>
    <path id="Path_590" data-name="Path 590" d="M189.762,474.784c.073,15.941-11.142,28.915-11.142,28.915s-11.334-12.871-11.408-28.811,11.142-28.915,11.142-28.915S189.688,458.844,189.762,474.784Z" transform="translate(-140.551 -378.683)" opacity="0.1"/>
    <rect id="Rectangle_104" data-name="Rectangle 104" width="1.154" height="45.587" transform="translate(22.402 90.292)" fill="#3f3d56"/>
    <path id="Path_591" data-name="Path 591" d="M113.39,474.784c.073,15.941-11.142,28.915-11.142,28.915S90.913,490.829,90.84,474.888s11.142-28.915,11.142-28.915S113.316,458.844,113.39,474.784Z" transform="translate(-79.182 -378.683)" fill="#6c63ff"/>
    <path id="Path_592" data-name="Path 592" d="M909.6,235.561c-9.091.042-16.491.176-16.491.176s8.8-11.651,16.458-7.334a104.624,104.624,0,0,0,16.464,7.183S918.693,235.519,909.6,235.561Z" transform="translate(-723.845 -203.084)" fill="#f2f2f2"/>
    <path id="Path_593" data-name="Path 593" d="M138.6,349.561c-9.091.042-16.491.176-16.491.176s8.8-11.651,16.458-7.334a104.627,104.627,0,0,0,16.464,7.183S147.693,349.519,138.6,349.561Z" transform="translate(-104.31 -294.688)" fill="#f2f2f2"/>
    <path id="Path_594" data-name="Path 594" d="M306.6,111.561c-9.091.042-16.491.176-16.491.176s8.8-11.651,16.458-7.334a104.626,104.626,0,0,0,16.464,7.183S315.693,111.519,306.6,111.561Z" transform="translate(-239.306 -103.444)" fill="#f2f2f2"/>
    <rect id="Rectangle_105" data-name="Rectangle 105" width="1.154" height="45.587" transform="translate(203.334 90.292)" fill="#3f3d56"/>
    <path id="Path_595" data-name="Path 595" d="M1034.395,474.784c.073,15.941-11.142,28.915-11.142,28.915s-11.334-12.871-11.408-28.811,11.142-28.915,11.142-28.915S1034.32,458.844,1034.395,474.784Z" transform="translate(-819.254 -378.683)" fill="#6c63ff"/>
    <path id="Path_596" data-name="Path 596" d="M800.025,536.129h11.647v-2.811H818.1v2.811h12.049V548.58H818.1v15.664h-6.426V548.58H800.025L794,541.752Z" transform="translate(-638.017 -428.547)" fill="#3f3d56"/>
  </g>
</svg>
