<svg xmlns="http://www.w3.org/2000/svg" width="104" height="36" viewBox="0 0 104 36">
  <g id="Group_73" data-name="Group 73" transform="translate(-142 -15)">
    <text id="la_boom" data-name="la&apos;boom" transform="translate(206 41)" fill="#1e3264" font-size="22" font-family="HelveticaNeue-Bold, Helvetica Neue" font-weight="700" letter-spacing="-0.04em"><tspan x="-39.699" y="0">la&apos;boom</tspan></text>
    <g id="Group_72" data-name="Group 72" transform="translate(-7719 -11054)">
      <path id="Subtraction_1" data-name="Subtraction 1" d="M18,42h0A18,18,0,0,1,5.272,11.272,17.882,17.882,0,0,1,18,6Z" transform="translate(7861 11063)" fill="rgba(30,50,100,0.5)"/>
      <path id="Subtraction_3" data-name="Subtraction 3" d="M12,27h0A12,12,0,0,1,3.515,6.515,11.921,11.921,0,0,1,12,3V27Z" transform="translate(7867 11072)" fill="rgba(30,50,100,0.75)"/>
      <path id="Subtraction_2" data-name="Subtraction 2" d="M6,15H6A6,6,0,0,1,6,3V15Z" transform="translate(7873 11078)" fill="#1e3264"/>
    </g>
  </g>
</svg>
