<svg xmlns="http://www.w3.org/2000/svg" width="42" height="42" viewBox="0 0 42 42">
  <path id="Exclusion_1" data-name="Exclusion 1" d="M21,42A20.9,20.9,0,0,1,9.259,38.414,21.061,21.061,0,0,1,1.65,29.174,20.972,20.972,0,0,1,3.586,9.259,21.061,21.061,0,0,1,12.826,1.65,20.973,20.973,0,0,1,32.741,3.586a21.061,21.061,0,0,1,7.608,9.239,20.973,20.973,0,0,1-1.936,19.916,21.061,21.061,0,0,1-9.239,7.608A20.869,20.869,0,0,1,21,42ZM19.73,24.359h-.017l-1.665.1h-.015l-1.744.107a.244.244,0,0,0-.251.187l-.977,6.949a.757.757,0,0,1-.11.309.733.733,0,0,1-.487.284c-.089.016-.208.026-.346.038l-.023,0a4.025,4.025,0,0,0-1.177.223,1.142,1.142,0,0,0-.776.942,1.274,1.274,0,0,0,.773,1.417,2.046,2.046,0,0,0,.372.08,2.851,2.851,0,0,0,.355.019,2.92,2.92,0,0,0,1.09-.182,1.48,1.48,0,0,0,.839-1.21l.879-6.257a.217.217,0,0,1,.2-.188l2.6-.162a.442.442,0,0,0,.409-.379l.286-2.038a.227.227,0,0,0-.055-.174A.215.215,0,0,0,19.73,24.359Zm15.046-11.9a.326.326,0,0,0-.129.028l-3.529,1.5-.04.017-3.449,1.462a.324.324,0,0,0-.227.345l.267,1.258,1.544,7.266a.987.987,0,0,1,0,.433.967.967,0,0,1-.476.572c-.1.06-.246.126-.411.2l-.029.013a5.307,5.307,0,0,0-1.359.807,1.507,1.507,0,0,0-.537,1.518,1.654,1.654,0,0,0,1.677,1.379c.054,0,.108,0,.161-.007h.023a1.572,1.572,0,0,0,.234-.027,4.494,4.494,0,0,0,1.718-.855,1.953,1.953,0,0,0,.5-1.879l-1.6-7.544a.288.288,0,0,1,.168-.325l5.165-2.237a.29.29,0,0,1,.4.2l.988,4.647a1.041,1.041,0,0,1,.012.495.965.965,0,0,1-.479.573c-.076.045-.191.1-.314.151l-.162.073c-.814.373-2.177,1-1.9,2.321a1.672,1.672,0,0,0,1.649,1.413,1.412,1.412,0,0,0,.2-.014,2.985,2.985,0,0,0,.682-.178,4.134,4.134,0,0,0,1.2-.737,1.917,1.917,0,0,0,.612-1.919l-2.28-10.725A.289.289,0,0,0,34.776,12.461ZM6.208,16.58c-.331,0-.785.053-.917.514a.727.727,0,0,0,.325.863,1.188,1.188,0,0,0,.2.075,2.2,2.2,0,0,0,.511.062,1.11,1.11,0,0,0,.319-.039.845.845,0,0,0,.571-.617l.994-3.468a.125.125,0,0,1,.119-.091h.011l1.483.115h.02a.253.253,0,0,0,.242-.183l.324-1.129a.129.129,0,0,0-.019-.106.125.125,0,0,0-.1-.051l-.97-.076-.983-.077h-.02a.134.134,0,0,0-.138.087l-1.1,3.852A.373.373,0,0,1,6.7,16.6H6.667c-.048,0-.106,0-.174-.007H6.488C6.409,16.586,6.311,16.58,6.208,16.58ZM24.046,4.93l-.023,0-1.66.2-2.109.258a.16.16,0,0,0-.156.134l-.3,4.33a.49.49,0,0,1-.058.208.482.482,0,0,1-.306.209c-.057.015-.132.026-.22.04l-.02,0c-.441.067-1.18.179-1.227.853a.827.827,0,0,0,.692.909l.013,0a.778.778,0,0,0,.114.019l.056,0a2.166,2.166,0,0,0,.884-.175.972.972,0,0,0,.5-.832l.268-3.832a.143.143,0,0,1,.125-.133l2.78-.362h.019a.146.146,0,0,1,.106.046.142.142,0,0,1,.038.108l-.165,2.361a.518.518,0,0,1-.062.238.481.481,0,0,1-.308.209c-.043.011-.106.02-.172.029l-.086.012c-.441.067-1.18.179-1.227.851a.829.829,0,0,0,.693.924,1.447,1.447,0,0,0,.2.015c.044,0,.092,0,.15-.006a2.088,2.088,0,0,0,.675-.188.956.956,0,0,0,.557-.835l.381-5.448a.152.152,0,0,0-.04-.11A.139.139,0,0,0,24.046,4.93Z" transform="translate(0 0)" fill="#fff"/>
</svg>
