<svg xmlns="http://www.w3.org/2000/svg" width="99" height="31" viewBox="0 0 99 31">
  <g id="Group_4015" data-name="Group 4015" transform="translate(-139 -66)">
    <text id="endless." transform="translate(139 92)" fill="#fff" font-size="26" font-family="CircularStd-Black, Circular Std Black" font-weight="800" letter-spacing="-0.015em"><tspan x="0" y="0">endless.</tspan></text>
    <path id="Icon_awesome-infinity" data-name="Icon awesome-infinity" d="M15.458,6.75A6.859,6.859,0,0,0,10.5,9.329,6.859,6.859,0,0,0,5.542,6.75,5.409,5.409,0,0,0,0,12a5.409,5.409,0,0,0,5.542,5.25A6.859,6.859,0,0,0,10.5,14.671a6.859,6.859,0,0,0,4.958,2.579A5.409,5.409,0,0,0,21,12,5.409,5.409,0,0,0,15.458,6.75ZM5.542,14.1A2.263,2.263,0,0,1,3.15,12,2.263,2.263,0,0,1,5.542,9.9C6.8,9.9,7.95,11.085,8.626,12c-.669.906-1.834,2.1-3.084,2.1Zm9.916,0c-1.253,0-2.408-1.185-3.084-2.1.669-.906,1.834-2.1,3.084-2.1A2.263,2.263,0,0,1,17.85,12,2.263,2.263,0,0,1,15.458,14.1Z" transform="translate(207 59.25)" fill="#fff"/>
  </g>
</svg>
