<svg xmlns="http://www.w3.org/2000/svg" width="60" height="60" viewBox="0 0 60 60">
  <path id="Icon_awesome-grin-hearts" data-name="Icon awesome-grin-hearts" d="M30,.563a30,30,0,1,0,30,30A29.995,29.995,0,0,0,30,.563ZM10.935,21.8a4.568,4.568,0,0,1,5.431-2.649l.859.23.242-.859a4.579,4.579,0,0,1,5.02-3.375,4.279,4.279,0,0,1,3.484,5.383L23.625,28.99a1.039,1.039,0,0,1-1.27.726l-8.492-2.2a4.293,4.293,0,0,1-2.927-5.71ZM30,51.853c-7.331,0-16.27-4.633-17.4-11.286a1.939,1.939,0,0,1,2.5-2.165A52.287,52.287,0,0,0,30,40.24,52.287,52.287,0,0,0,44.891,38.4a1.946,1.946,0,0,1,2.5,2.165C46.27,47.22,37.331,51.853,30,51.853ZM46.137,27.5l-8.492,2.2a1.05,1.05,0,0,1-1.27-.726l-2.347-8.456a4.279,4.279,0,0,1,3.484-5.383,4.594,4.594,0,0,1,5.02,3.375l.242.859.859-.23a4.58,4.58,0,0,1,5.431,2.649,4.284,4.284,0,0,1-2.927,5.71Z" transform="translate(0 -0.563)"/>
</svg>
