<svg xmlns="http://www.w3.org/2000/svg" width="42.165" height="27.198" viewBox="0 0 42.165 27.198">
  <g id="Group_48" data-name="Group 48" transform="translate(-265.261 -34.059)">
    <path id="Icon_ionic-ios-musical-note" data-name="Icon ionic-ios-musical-note" d="M18.024,3.382c-.173.033-4.339.886-4.493.916a.326.326,0,0,0-.3.294h0v9.38a1.014,1.014,0,0,1-.088.43.98.98,0,0,1-.592.467c-.121.04-.287.077-.482.121-.886.2-2.368.537-2.368,1.9a1.706,1.706,0,0,0,1.287,1.732,2.762,2.762,0,0,0,.507.037,4.352,4.352,0,0,0,1.883-.485,1.981,1.981,0,0,0,.886-1.758V7.975a.292.292,0,0,1,.235-.287l3.412-.7a.591.591,0,0,0,.471-.577V3.662A.291.291,0,0,0,18.024,3.382Z" transform="translate(255.558 35.917)" fill="#fff"/>
    <path id="Icon_ionic-ios-musical-notes" data-name="Icon ionic-ios-musical-notes" d="M18.16,3.382,10.578,4.853a.326.326,0,0,0-.3.294v8.829a1.014,1.014,0,0,1-.088.43.98.98,0,0,1-.592.467c-.121.04-.287.077-.482.121-.886.2-2.368.537-2.368,1.9a1.683,1.683,0,0,0,1.533,1.747,1.793,1.793,0,0,0,.261.026h0a4.539,4.539,0,0,0,1.883-.485,1.981,1.981,0,0,0,.886-1.758V8.615a.292.292,0,0,1,.235-.287L17.138,7.2a.294.294,0,0,1,.353.287V12.3a1.054,1.054,0,0,1-.092.493.977.977,0,0,1-.6.467c-.121.04-.324.077-.518.121-.886.2-2.368.533-2.368,1.9a1.686,1.686,0,0,0,1.537,1.776,3.039,3.039,0,0,0,.713-.033,4.216,4.216,0,0,0,1.342-.478,1.938,1.938,0,0,0,1.011-1.772V3.666A.291.291,0,0,0,18.16,3.382Z" transform="translate(277.605 30.684)" fill="#fff"/>
    <path id="Icon_ionic-ios-musical-note-2" data-name="Icon ionic-ios-musical-note" d="M15.044,3.38c-.111.021-2.785.569-2.884.588a.209.209,0,0,0-.191.189h0v6.021a.651.651,0,0,1-.057.276.629.629,0,0,1-.38.3c-.078.026-.184.05-.309.078-.569.127-1.52.345-1.52,1.223a1.1,1.1,0,0,0,.826,1.112,1.773,1.773,0,0,0,.326.024,2.793,2.793,0,0,0,1.208-.312,1.272,1.272,0,0,0,.569-1.128V6.328a.187.187,0,0,1,.151-.184l2.19-.448a.379.379,0,0,0,.3-.371V3.559A.187.187,0,0,0,15.044,3.38Z" transform="translate(292.151 48.069)" fill="#fff"/>
  </g>
</svg>
