<svg xmlns="http://www.w3.org/2000/svg" width="25" height="20" viewBox="0 0 25 20">
  <path id="Icon_awesome-dice" data-name="Icon awesome-dice" d="M23.125,7.5H18.487a3.167,3.167,0,0,1-.664,3.489L12.5,16.312v1.813A1.875,1.875,0,0,0,14.375,20h8.75A1.875,1.875,0,0,0,25,18.125V9.375A1.875,1.875,0,0,0,23.125,7.5ZM18.75,14.688a.938.938,0,1,1,.938-.937A.938.938,0,0,1,18.75,14.688ZM16.939,7.395,10.105.561a1.917,1.917,0,0,0-2.711,0L.561,7.395a1.917,1.917,0,0,0,0,2.711l6.833,6.834a1.917,1.917,0,0,0,2.711,0l6.834-6.833a1.917,1.917,0,0,0,0-2.711ZM3.75,9.688a.937.937,0,1,1,.937-.937A.938.938,0,0,1,3.75,9.688Zm5,5a.938.938,0,1,1,.938-.937A.938.938,0,0,1,8.75,14.688Zm0-5a.937.937,0,1,1,.938-.937A.938.938,0,0,1,8.75,9.688Zm0-5a.937.937,0,1,1,.938-.937A.938.938,0,0,1,8.75,4.688Zm5,5a.937.937,0,1,1,.938-.937A.938.938,0,0,1,13.75,9.688Z" fill="#fff"/>
</svg>
