<svg xmlns="http://www.w3.org/2000/svg" width="60" height="60" viewBox="0 0 60 60">
  <path id="Icon_ionic-ios-sad" data-name="Icon ionic-ios-sad" d="M33.375,3.375a30,30,0,1,0,30,30A30,30,0,0,0,33.375,3.375ZM22.716,25.313a3.466,3.466,0,1,1-3.173,3.173A3.47,3.47,0,0,1,22.716,25.313Zm-.1,21.909A2.312,2.312,0,0,1,20.5,43.99a14.04,14.04,0,0,1,25.76,0,2.306,2.306,0,0,1-2.12,3.231,103.941,103.941,0,0,0-10.543-.577C28.038,46.644,22.615,47.221,22.615,47.221ZM44.034,32.207a3.466,3.466,0,1,1,3.173-3.173A3.47,3.47,0,0,1,44.034,32.207Z" transform="translate(-3.375 -3.375)"/>
</svg>
