<svg xmlns="http://www.w3.org/2000/svg" width="60" height="60" viewBox="0 0 60 60">
  <path id="Icon_ionic-ios-happy" data-name="Icon ionic-ios-happy" d="M33.375,3.375a30,30,0,1,0,30,30A30,30,0,0,0,33.375,3.375ZM43.76,25.3A3.462,3.462,0,1,1,40.3,28.76,3.453,3.453,0,0,1,43.76,25.3Zm-20.769,0a3.462,3.462,0,1,1-3.462,3.462A3.453,3.453,0,0,1,22.99,25.3ZM33.375,49.673a14.161,14.161,0,0,1-13.587-10.2A1.159,1.159,0,0,1,20.9,37.99H45.837a1.16,1.16,0,0,1,1.111,1.486A14.13,14.13,0,0,1,33.375,49.673Z" transform="translate(-3.375 -3.375)"/>
</svg>
